<?xml version="1.0" encoding="UTF-8"?>
<svg xmlns="http://www.w3.org/2000/svg" xmlns:xlink="http://www.w3.org/1999/xlink" width="375pt" height="374.999991pt" viewBox="0 0 375 374.999991" version="1.2">
<defs>
<clipPath id="clip1">
  <path d="M 18.75 18.75 L 355 18.75 L 355 355 L 18.75 355 Z M 18.75 18.75 "/>
</clipPath>
</defs>
<g id="surface1">
<g clip-path="url(#clip1)" clip-rule="nonzero">
<path style=" stroke:none;fill-rule:nonzero;fill:rgb(97.24884%,84.309387%,1.568604%);fill-opacity:1;" d="M 153.078125 18.75 C 79.089844 18.75 18.75 79.089844 18.75 153.078125 C 18.75 227.066406 79.089844 287.40625 153.078125 287.40625 C 187.0625 287.40625 218.089844 274.597656 241.789062 253.660156 L 253.824219 265.695312 L 253.824219 287.40625 L 314.035156 347.617188 C 323.304688 356.886719 338.351562 356.886719 347.617188 347.617188 C 356.886719 338.351562 356.886719 323.304688 347.617188 314.035156 L 287.40625 253.824219 L 265.695312 253.824219 L 253.660156 241.789062 C 274.597656 218.089844 287.40625 187.0625 287.40625 153.078125 C 287.40625 79.089844 227.066406 18.75 153.078125 18.75 Z M 153.078125 52.332031 C 208.917969 52.332031 253.824219 97.238281 253.824219 153.078125 C 253.824219 208.917969 208.917969 253.824219 153.078125 253.824219 C 97.238281 253.824219 52.332031 208.917969 52.332031 153.078125 C 52.332031 97.238281 97.238281 52.332031 153.078125 52.332031 Z M 102.707031 119.496094 C 102.15625 119.496094 101.605469 119.523438 101.058594 119.578125 C 100.511719 119.632812 99.96875 119.710938 99.429688 119.820312 C 98.890625 119.925781 98.355469 120.058594 97.832031 120.21875 C 97.304688 120.378906 96.789062 120.5625 96.28125 120.773438 C 95.773438 120.984375 95.273438 121.21875 94.789062 121.480469 C 94.304688 121.738281 93.832031 122.019531 93.375 122.324219 C 92.917969 122.632812 92.476562 122.957031 92.054688 123.308594 C 91.628906 123.65625 91.222656 124.023438 90.832031 124.414062 C 90.441406 124.804688 90.074219 125.210938 89.726562 125.636719 C 89.375 126.058594 89.050781 126.5 88.742188 126.957031 C 88.4375 127.414062 88.15625 127.886719 87.898438 128.371094 C 87.636719 128.855469 87.402344 129.355469 87.191406 129.863281 C 86.980469 130.371094 86.796875 130.886719 86.636719 131.414062 C 86.476562 131.9375 86.34375 132.472656 86.238281 133.011719 C 86.128906 133.550781 86.050781 134.09375 85.996094 134.640625 C 85.941406 135.1875 85.914062 135.738281 85.914062 136.289062 C 85.914062 136.835938 85.941406 137.386719 85.996094 137.933594 C 86.050781 138.480469 86.128906 139.023438 86.238281 139.5625 C 86.34375 140.101562 86.476562 140.636719 86.636719 141.160156 C 86.796875 141.6875 86.980469 142.203125 87.191406 142.714844 C 87.402344 143.222656 87.636719 143.71875 87.898438 144.203125 C 88.15625 144.6875 88.4375 145.160156 88.742188 145.617188 C 89.050781 146.074219 89.375 146.515625 89.726562 146.9375 C 90.074219 147.363281 90.441406 147.773438 90.832031 148.160156 C 91.222656 148.550781 91.628906 148.917969 92.054688 149.265625 C 92.476562 149.617188 92.917969 149.941406 93.375 150.25 C 93.832031 150.554688 94.304688 150.835938 94.789062 151.09375 C 95.273438 151.355469 95.773438 151.589844 96.28125 151.800781 C 96.789062 152.011719 97.304688 152.195312 97.832031 152.355469 C 98.355469 152.515625 98.890625 152.648438 99.429688 152.753906 C 99.96875 152.863281 100.511719 152.945312 101.058594 152.996094 C 101.605469 153.050781 102.15625 153.078125 102.707031 153.078125 C 103.253906 153.078125 103.804688 153.050781 104.351562 152.996094 C 104.898438 152.945312 105.441406 152.863281 105.980469 152.753906 C 106.519531 152.648438 107.054688 152.515625 107.578125 152.355469 C 108.105469 152.195312 108.621094 152.011719 109.132812 151.800781 C 109.640625 151.589844 110.136719 151.355469 110.621094 151.09375 C 111.105469 150.835938 111.578125 150.554688 112.035156 150.25 C 112.492188 149.941406 112.933594 149.617188 113.355469 149.265625 C 113.78125 148.917969 114.1875 148.550781 114.578125 148.160156 C 114.96875 147.773438 115.335938 147.363281 115.683594 146.9375 C 116.035156 146.515625 116.359375 146.074219 116.667969 145.617188 C 116.972656 145.160156 117.253906 144.6875 117.511719 144.203125 C 117.773438 143.71875 118.007812 143.222656 118.21875 142.714844 C 118.429688 142.203125 118.613281 141.6875 118.773438 141.160156 C 118.933594 140.636719 119.066406 140.101562 119.171875 139.5625 C 119.28125 139.023438 119.363281 138.480469 119.414062 137.933594 C 119.46875 137.386719 119.496094 136.835938 119.496094 136.289062 C 119.496094 135.738281 119.46875 135.1875 119.414062 134.640625 C 119.363281 134.09375 119.28125 133.550781 119.171875 133.011719 C 119.066406 132.472656 118.933594 131.9375 118.773438 131.414062 C 118.613281 130.886719 118.429688 130.371094 118.21875 129.863281 C 118.007812 129.355469 117.773438 128.855469 117.511719 128.371094 C 117.253906 127.886719 116.972656 127.414062 116.667969 126.957031 C 116.359375 126.5 116.035156 126.058594 115.683594 125.636719 C 115.335938 125.210938 114.96875 124.804688 114.578125 124.414062 C 114.1875 124.023438 113.78125 123.65625 113.355469 123.308594 C 112.933594 122.957031 112.492188 122.632812 112.035156 122.324219 C 111.578125 122.019531 111.105469 121.738281 110.621094 121.480469 C 110.136719 121.21875 109.640625 120.984375 109.132812 120.773438 C 108.621094 120.5625 108.105469 120.378906 107.578125 120.21875 C 107.054688 120.058594 106.519531 119.925781 105.980469 119.820312 C 105.441406 119.710938 104.898438 119.632812 104.351562 119.578125 C 103.804688 119.523438 103.253906 119.496094 102.707031 119.496094 Z M 203.453125 119.496094 C 202.902344 119.496094 202.351562 119.523438 201.804688 119.578125 C 201.257812 119.632812 200.714844 119.710938 200.175781 119.820312 C 199.636719 119.925781 199.105469 120.058594 198.578125 120.21875 C 198.050781 120.378906 197.535156 120.5625 197.027344 120.773438 C 196.519531 120.984375 196.019531 121.21875 195.535156 121.480469 C 195.050781 121.738281 194.582031 122.019531 194.121094 122.324219 C 193.664062 122.632812 193.222656 122.957031 192.800781 123.308594 C 192.375 123.65625 191.96875 124.023438 191.578125 124.414062 C 191.191406 124.804688 190.820312 125.210938 190.472656 125.636719 C 190.121094 126.058594 189.796875 126.5 189.488281 126.957031 C 189.183594 127.414062 188.902344 127.886719 188.644531 128.371094 C 188.382812 128.855469 188.148438 129.355469 187.9375 129.863281 C 187.726562 130.371094 187.542969 130.886719 187.382812 131.414062 C 187.222656 131.9375 187.089844 132.472656 186.984375 133.011719 C 186.875 133.550781 186.796875 134.09375 186.742188 134.640625 C 186.6875 135.1875 186.660156 135.738281 186.660156 136.289062 C 186.660156 136.835938 186.6875 137.386719 186.742188 137.933594 C 186.796875 138.480469 186.875 139.023438 186.984375 139.5625 C 187.089844 140.101562 187.222656 140.636719 187.382812 141.160156 C 187.542969 141.6875 187.726562 142.203125 187.9375 142.714844 C 188.148438 143.222656 188.382812 143.71875 188.644531 144.203125 C 188.902344 144.6875 189.183594 145.160156 189.488281 145.617188 C 189.796875 146.074219 190.121094 146.515625 190.472656 146.9375 C 190.820312 147.363281 191.191406 147.773438 191.578125 148.160156 C 191.96875 148.550781 192.375 148.917969 192.800781 149.265625 C 193.222656 149.617188 193.664062 149.941406 194.121094 150.25 C 194.582031 150.554688 195.050781 150.835938 195.535156 151.09375 C 196.019531 151.355469 196.519531 151.589844 197.027344 151.800781 C 197.535156 152.011719 198.050781 152.195312 198.578125 152.355469 C 199.105469 152.515625 199.636719 152.648438 200.175781 152.753906 C 200.714844 152.863281 201.257812 152.945312 201.804688 152.996094 C 202.351562 153.050781 202.902344 153.078125 203.453125 153.078125 C 204 153.078125 204.550781 153.050781 205.097656 152.996094 C 205.644531 152.945312 206.1875 152.863281 206.726562 152.753906 C 207.265625 152.648438 207.800781 152.515625 208.324219 152.355469 C 208.851562 152.195312 209.367188 152.011719 209.878906 151.800781 C 210.386719 151.589844 210.882812 151.355469 211.367188 151.09375 C 211.851562 150.835938 212.324219 150.554688 212.78125 150.25 C 213.238281 149.941406 213.679688 149.617188 214.105469 149.265625 C 214.527344 148.917969 214.9375 148.550781 215.324219 148.160156 C 215.714844 147.773438 216.082031 147.363281 216.429688 146.9375 C 216.78125 146.515625 217.105469 146.074219 217.414062 145.617188 C 217.71875 145.160156 218 144.6875 218.261719 144.203125 C 218.519531 143.71875 218.753906 143.222656 218.964844 142.714844 C 219.175781 142.203125 219.359375 141.6875 219.519531 141.160156 C 219.679688 140.636719 219.8125 140.101562 219.917969 139.5625 C 220.027344 139.023438 220.109375 138.480469 220.160156 137.933594 C 220.214844 137.386719 220.242188 136.835938 220.242188 136.289062 C 220.242188 135.738281 220.214844 135.1875 220.160156 134.640625 C 220.109375 134.09375 220.027344 133.550781 219.917969 133.011719 C 219.8125 132.472656 219.679688 131.9375 219.519531 131.414062 C 219.359375 130.886719 219.175781 130.371094 218.964844 129.863281 C 218.753906 129.355469 218.519531 128.855469 218.261719 128.371094 C 218 127.886719 217.71875 127.414062 217.414062 126.957031 C 217.105469 126.5 216.78125 126.058594 216.429688 125.636719 C 216.082031 125.210938 215.714844 124.804688 215.324219 124.414062 C 214.9375 124.023438 214.527344 123.65625 214.105469 123.308594 C 213.679688 122.957031 213.238281 122.632812 212.78125 122.324219 C 212.324219 122.019531 211.851562 121.738281 211.367188 121.480469 C 210.882812 121.21875 210.386719 120.984375 209.878906 120.773438 C 209.367188 120.5625 208.851562 120.378906 208.324219 120.21875 C 207.800781 120.058594 207.265625 119.925781 206.726562 119.820312 C 206.1875 119.710938 205.644531 119.632812 205.097656 119.578125 C 204.550781 119.523438 204 119.496094 203.453125 119.496094 Z M 153.078125 169.804688 C 137.859375 169.804688 122.628906 174.421875 109.722656 183.644531 C 109.277344 183.964844 108.84375 184.304688 108.429688 184.667969 C 108.015625 185.027344 107.621094 185.410156 107.246094 185.8125 C 106.867188 186.214844 106.511719 186.632812 106.175781 187.066406 C 105.839844 187.503906 105.527344 187.957031 105.238281 188.421875 C 104.945312 188.890625 104.679688 189.371094 104.433594 189.863281 C 104.191406 190.355469 103.972656 190.859375 103.777344 191.375 C 103.582031 191.890625 103.414062 192.414062 103.269531 192.945312 C 103.128906 193.476562 103.011719 194.011719 102.921875 194.554688 C 102.832031 195.097656 102.769531 195.644531 102.730469 196.191406 C 102.695312 196.742188 102.683594 197.292969 102.703125 197.839844 C 102.71875 198.390625 102.765625 198.9375 102.835938 199.484375 C 102.90625 200.03125 103.003906 200.570312 103.128906 201.105469 C 103.253906 201.644531 103.40625 202.171875 103.582031 202.691406 C 103.757812 203.214844 103.960938 203.726562 104.1875 204.226562 C 104.414062 204.726562 104.664062 205.21875 104.9375 205.695312 C 105.210938 206.171875 105.511719 206.632812 105.832031 207.082031 C 106.152344 207.527344 106.492188 207.957031 106.855469 208.371094 C 107.21875 208.785156 107.597656 209.179688 108 209.558594 C 108.402344 209.933594 108.820312 210.289062 109.257812 210.625 C 109.691406 210.960938 110.144531 211.273438 110.613281 211.5625 C 111.078125 211.855469 111.558594 212.121094 112.050781 212.367188 C 112.546875 212.609375 113.050781 212.828125 113.566406 213.023438 C 114.078125 213.21875 114.601562 213.386719 115.132812 213.527344 C 115.664062 213.671875 116.203125 213.785156 116.746094 213.875 C 117.289062 213.964844 117.835938 214.03125 118.382812 214.066406 C 118.933594 214.101562 119.480469 214.113281 120.03125 214.09375 C 120.582031 214.074219 121.128906 214.03125 121.675781 213.960938 C 122.222656 213.886719 122.761719 213.789062 123.296875 213.664062 C 123.832031 213.539062 124.363281 213.390625 124.882812 213.214844 C 125.402344 213.035156 125.914062 212.835938 126.417969 212.609375 C 126.917969 212.378906 127.40625 212.128906 127.882812 211.855469 C 128.359375 211.578125 128.820312 211.28125 129.269531 210.960938 C 143.183594 201.023438 162.972656 201.023438 176.886719 210.960938 C 177.335938 211.28125 177.796875 211.578125 178.273438 211.851562 C 178.75 212.125 179.238281 212.375 179.738281 212.601562 C 180.242188 212.828125 180.75 213.03125 181.273438 213.207031 C 181.792969 213.382812 182.320312 213.53125 182.855469 213.65625 C 183.394531 213.78125 183.933594 213.878906 184.476562 213.949219 C 185.023438 214.019531 185.570312 214.0625 186.121094 214.082031 C 186.667969 214.097656 187.21875 214.089844 187.765625 214.050781 C 188.316406 214.015625 188.859375 213.953125 189.402344 213.859375 C 189.945312 213.769531 190.480469 213.65625 191.011719 213.511719 C 191.542969 213.367188 192.066406 213.199219 192.582031 213.007812 C 193.09375 212.8125 193.597656 212.59375 194.089844 212.347656 C 194.585938 212.105469 195.0625 211.839844 195.53125 211.546875 C 195.996094 211.257812 196.449219 210.945312 196.882812 210.609375 C 197.320312 210.273438 197.738281 209.917969 198.140625 209.542969 C 198.539062 209.164062 198.921875 208.769531 199.285156 208.359375 C 199.644531 207.945312 199.988281 207.511719 200.308594 207.066406 C 200.628906 206.621094 200.925781 206.15625 201.199219 205.679688 C 201.472656 205.207031 201.722656 204.714844 201.949219 204.214844 C 202.175781 203.714844 202.378906 203.203125 202.554688 202.683594 C 202.730469 202.164062 202.882812 201.632812 203.007812 201.097656 C 203.132812 200.5625 203.230469 200.023438 203.300781 199.476562 C 203.371094 198.933594 203.417969 198.386719 203.433594 197.835938 C 203.453125 197.285156 203.441406 196.738281 203.40625 196.191406 C 203.371094 195.640625 203.308594 195.09375 203.21875 194.554688 C 203.128906 194.011719 203.011719 193.472656 202.871094 192.941406 C 202.726562 192.410156 202.558594 191.890625 202.367188 191.375 C 202.171875 190.859375 201.953125 190.355469 201.710938 189.863281 C 201.46875 189.371094 201.199219 188.890625 200.910156 188.421875 C 200.621094 187.957031 200.308594 187.503906 199.972656 187.070312 C 199.636719 186.632812 199.28125 186.214844 198.90625 185.8125 C 198.53125 185.410156 198.136719 185.03125 197.722656 184.667969 C 197.308594 184.304688 196.878906 183.964844 196.433594 183.644531 C 183.527344 174.421875 168.296875 169.804688 153.078125 169.804688 Z M 153.078125 169.804688 "/>
</g>
</g>
</svg>
